<svg width="127" height="29" viewBox="0 0 127 29" fill="none" xmlns="http://www.w3.org/2000/svg">
<path d="M7.23 22V1.12H11.94V22H7.23ZM0.6 4.93V0.819999H18.57V4.93H0.6ZM30.4102 22V13.69C30.4102 12.93 30.1702 12.32 29.6902 11.86C29.2302 11.38 28.6402 11.14 27.9202 11.14C27.4202 11.14 26.9802 11.25 26.6002 11.47C26.2202 11.67 25.9202 11.97 25.7002 12.37C25.4802 12.75 25.3702 13.19 25.3702 13.69L23.6002 12.82C23.6002 11.68 23.8402 10.68 24.3202 9.82C24.8002 8.96 25.4702 8.3 26.3302 7.84C27.1902 7.36 28.1802 7.12 29.3002 7.12C30.4402 7.12 31.4402 7.36 32.3002 7.84C33.1602 8.3 33.8202 8.95 34.2802 9.79C34.7602 10.61 35.0002 11.57 35.0002 12.67V22H30.4102ZM20.7802 22V0.22H25.3702V22H20.7802ZM37.9481 22V7.42H42.5381V22H37.9481ZM40.2581 5.41C39.5381 5.41 38.9381 5.17 38.4581 4.69C37.9981 4.19 37.7681 3.59 37.7681 2.89C37.7681 2.17 37.9981 1.57 38.4581 1.09C38.9381 0.609999 39.5381 0.37 40.2581 0.37C40.9781 0.37 41.5681 0.609999 42.0281 1.09C42.4881 1.57 42.7181 2.17 42.7181 2.89C42.7181 3.59 42.4881 4.19 42.0281 4.69C41.5681 5.17 40.9781 5.41 40.2581 5.41ZM55.4004 22V13.69C55.4004 12.93 55.1604 12.32 54.6804 11.86C54.2204 11.38 53.6304 11.14 52.9104 11.14C52.4104 11.14 51.9704 11.25 51.5904 11.47C51.2104 11.67 50.9104 11.97 50.6904 12.37C50.4704 12.75 50.3604 13.19 50.3604 13.69L48.5904 12.82C48.5904 11.68 48.8404 10.68 49.3404 9.82C49.8404 8.96 50.5304 8.3 51.4104 7.84C52.3104 7.36 53.3204 7.12 54.4404 7.12C55.5204 7.12 56.4704 7.38 57.2904 7.9C58.1304 8.4 58.7904 9.07 59.2704 9.91C59.7504 10.75 59.9904 11.67 59.9904 12.67V22H55.4004ZM45.7704 22V7.42H50.3604V22H45.7704ZM72.2684 22L67.1684 14.44L72.2384 7.42H77.3684L71.2484 15.31L71.3984 13.42L77.6684 22H72.2684ZM62.9384 22V0.22H67.5284V22H62.9384Z" fill="#0F0E0E"/>
<path d="M86.0953 22.33C84.3553 22.33 82.8553 22.05 81.5953 21.49C80.3553 20.91 79.2153 20.04 78.1753 18.88L81.2353 15.85C81.9153 16.63 82.6653 17.24 83.4853 17.68C84.3253 18.1 85.2953 18.31 86.3953 18.31C87.3953 18.31 88.1653 18.13 88.7053 17.77C89.2653 17.41 89.5453 16.91 89.5453 16.27C89.5453 15.69 89.3653 15.22 89.0053 14.86C88.6453 14.5 88.1653 14.19 87.5653 13.93C86.9853 13.67 86.3353 13.42 85.6153 13.18C84.9153 12.94 84.2153 12.67 83.5153 12.37C82.8153 12.05 82.1653 11.66 81.5653 11.2C80.9853 10.72 80.5153 10.13 80.1553 9.43C79.7953 8.71 79.6153 7.81 79.6153 6.73C79.6153 5.43 79.9253 4.31 80.5453 3.37C81.1853 2.43 82.0653 1.72 83.1853 1.24C84.3053 0.74 85.5953 0.49 87.0553 0.49C88.5353 0.49 89.8853 0.749999 91.1053 1.27C92.3453 1.79 93.3653 2.5 94.1653 3.4L91.1053 6.43C90.4653 5.77 89.8153 5.28 89.1553 4.96C88.5153 4.64 87.7853 4.48 86.9653 4.48C86.1453 4.48 85.4953 4.64 85.0153 4.96C84.5353 5.26 84.2953 5.7 84.2953 6.28C84.2953 6.82 84.4753 7.26 84.8353 7.6C85.1953 7.92 85.6653 8.2 86.2453 8.44C86.8453 8.68 87.4953 8.92 88.1953 9.16C88.9153 9.4 89.6253 9.68 90.3253 10C91.0253 10.32 91.6653 10.73 92.2453 11.23C92.8453 11.71 93.3253 12.33 93.6853 13.09C94.0453 13.83 94.2253 14.75 94.2253 15.85C94.2253 17.87 93.5053 19.46 92.0653 20.62C90.6253 21.76 88.6353 22.33 86.0953 22.33ZM100.983 22.06L94.9833 7.42H99.9333L103.743 19.03H101.913L105.813 7.42H110.763L104.523 22.06H100.983ZM97.2333 28.15L101.613 18.7L104.523 22.06L101.943 28.15H97.2333ZM121.787 22V13.69C121.787 12.93 121.547 12.32 121.067 11.86C120.607 11.38 120.017 11.14 119.297 11.14C118.797 11.14 118.357 11.25 117.977 11.47C117.597 11.67 117.297 11.97 117.077 12.37C116.857 12.75 116.747 13.19 116.747 13.69L114.977 12.82C114.977 11.68 115.227 10.68 115.727 9.82C116.227 8.96 116.917 8.3 117.797 7.84C118.697 7.36 119.707 7.12 120.827 7.12C121.907 7.12 122.857 7.38 123.677 7.9C124.517 8.4 125.177 9.07 125.657 9.91C126.137 10.75 126.377 11.67 126.377 12.67V22H121.787ZM112.157 22V7.42H116.747V22H112.157Z" fill="#5044E5"/>
</svg>
