<svg width="164" height="60" viewBox="0 0 164 60" fill="none" xmlns="http://www.w3.org/2000/svg">
<path d="M8.5 47C10.433 47 12 45.433 12 43.5C12 41.567 10.433 40 8.5 40C6.567 40 5 41.567 5 43.5C5 45.433 6.567 47 8.5 47Z" fill="#5044E5" stroke="url(#paint0_linear_0_1)" stroke-width="10"/>
<path d="M28.23 43V22.12H32.94V43H28.23ZM21.6 25.93V21.82H39.57V25.93H21.6ZM51.4102 43V34.69C51.4102 33.93 51.1702 33.32 50.6902 32.86C50.2302 32.38 49.6402 32.14 48.9202 32.14C48.4202 32.14 47.9802 32.25 47.6002 32.47C47.2202 32.67 46.9202 32.97 46.7002 33.37C46.4802 33.75 46.3702 34.19 46.3702 34.69L44.6002 33.82C44.6002 32.68 44.8402 31.68 45.3202 30.82C45.8002 29.96 46.4702 29.3 47.3302 28.84C48.1902 28.36 49.1802 28.12 50.3002 28.12C51.4402 28.12 52.4402 28.36 53.3002 28.84C54.1602 29.3 54.8202 29.95 55.2802 30.79C55.7602 31.61 56.0002 32.57 56.0002 33.67V43H51.4102ZM41.7802 43V21.22H46.3702V43H41.7802ZM58.9481 43V28.42H63.5381V43H58.9481ZM61.2581 26.41C60.5381 26.41 59.9381 26.17 59.4581 25.69C58.9981 25.19 58.7681 24.59 58.7681 23.89C58.7681 23.17 58.9981 22.57 59.4581 22.09C59.9381 21.61 60.5381 21.37 61.2581 21.37C61.9781 21.37 62.5681 21.61 63.0281 22.09C63.4881 22.57 63.7181 23.17 63.7181 23.89C63.7181 24.59 63.4881 25.19 63.0281 25.69C62.5681 26.17 61.9781 26.41 61.2581 26.41ZM76.4004 43V34.69C76.4004 33.93 76.1604 33.32 75.6804 32.86C75.2204 32.38 74.6304 32.14 73.9104 32.14C73.4104 32.14 72.9704 32.25 72.5904 32.47C72.2104 32.67 71.9104 32.97 71.6904 33.37C71.4704 33.75 71.3604 34.19 71.3604 34.69L69.5904 33.82C69.5904 32.68 69.8404 31.68 70.3404 30.82C70.8404 29.96 71.5304 29.3 72.4104 28.84C73.3104 28.36 74.3204 28.12 75.4404 28.12C76.5204 28.12 77.4704 28.38 78.2904 28.9C79.1304 29.4 79.7904 30.07 80.2704 30.91C80.7504 31.75 80.9904 32.67 80.9904 33.67V43H76.4004ZM66.7704 43V28.42H71.3604V43H66.7704ZM93.2684 43L88.1684 35.44L93.2384 28.42H98.3684L92.2484 36.31L92.3984 34.42L98.6684 43H93.2684ZM83.9384 43V21.22H88.5284V43H83.9384Z" fill="#0F0E0E"/>
<path d="M107.095 43.33C105.355 43.33 103.855 43.05 102.595 42.49C101.355 41.91 100.215 41.04 99.1753 39.88L102.235 36.85C102.915 37.63 103.665 38.24 104.485 38.68C105.325 39.1 106.295 39.31 107.395 39.31C108.395 39.31 109.165 39.13 109.705 38.77C110.265 38.41 110.545 37.91 110.545 37.27C110.545 36.69 110.365 36.22 110.005 35.86C109.645 35.5 109.165 35.19 108.565 34.93C107.985 34.67 107.335 34.42 106.615 34.18C105.915 33.94 105.215 33.67 104.515 33.37C103.815 33.05 103.165 32.66 102.565 32.2C101.985 31.72 101.515 31.13 101.155 30.43C100.795 29.71 100.615 28.81 100.615 27.73C100.615 26.43 100.925 25.31 101.545 24.37C102.185 23.43 103.065 22.72 104.185 22.24C105.305 21.74 106.595 21.49 108.055 21.49C109.535 21.49 110.885 21.75 112.105 22.27C113.345 22.79 114.365 23.5 115.165 24.4L112.105 27.43C111.465 26.77 110.815 26.28 110.155 25.96C109.515 25.64 108.785 25.48 107.965 25.48C107.145 25.48 106.495 25.64 106.015 25.96C105.535 26.26 105.295 26.7 105.295 27.28C105.295 27.82 105.475 28.26 105.835 28.6C106.195 28.92 106.665 29.2 107.245 29.44C107.845 29.68 108.495 29.92 109.195 30.16C109.915 30.4 110.625 30.68 111.325 31C112.025 31.32 112.665 31.73 113.245 32.23C113.845 32.71 114.325 33.33 114.685 34.09C115.045 34.83 115.225 35.75 115.225 36.85C115.225 38.87 114.505 40.46 113.065 41.62C111.625 42.76 109.635 43.33 107.095 43.33ZM121.983 43.06L115.983 28.42H120.933L124.743 40.03H122.913L126.813 28.42H131.763L125.523 43.06H121.983ZM118.233 49.15L122.613 39.7L125.523 43.06L122.943 49.15H118.233ZM142.787 43V34.69C142.787 33.93 142.547 33.32 142.067 32.86C141.607 32.38 141.017 32.14 140.297 32.14C139.797 32.14 139.357 32.25 138.977 32.47C138.597 32.67 138.297 32.97 138.077 33.37C137.857 33.75 137.747 34.19 137.747 34.69L135.977 33.82C135.977 32.68 136.227 31.68 136.727 30.82C137.227 29.96 137.917 29.3 138.797 28.84C139.697 28.36 140.707 28.12 141.827 28.12C142.907 28.12 143.857 28.38 144.677 28.9C145.517 29.4 146.177 30.07 146.657 30.91C147.137 31.75 147.377 32.67 147.377 33.67V43H142.787ZM133.157 43V28.42H137.747V43H133.157ZM157.375 43.33C155.875 43.33 154.515 43 153.295 42.34C152.075 41.68 151.115 40.77 150.415 39.61C149.715 38.45 149.365 37.15 149.365 35.71C149.365 34.25 149.715 32.95 150.415 31.81C151.135 30.65 152.105 29.74 153.325 29.08C154.545 28.42 155.915 28.09 157.435 28.09C158.575 28.09 159.615 28.29 160.555 28.69C161.515 29.07 162.365 29.65 163.105 30.43L160.165 33.37C159.825 32.99 159.425 32.71 158.965 32.53C158.525 32.35 158.015 32.26 157.435 32.26C156.775 32.26 156.185 32.41 155.665 32.71C155.165 32.99 154.765 33.39 154.465 33.91C154.185 34.41 154.045 35 154.045 35.68C154.045 36.36 154.185 36.96 154.465 37.48C154.765 38 155.175 38.41 155.695 38.71C156.215 39.01 156.795 39.16 157.435 39.16C158.035 39.16 158.565 39.06 159.025 38.86C159.505 38.64 159.915 38.34 160.255 37.96L163.165 40.9C162.405 41.7 161.545 42.31 160.585 42.73C159.625 43.13 158.555 43.33 157.375 43.33Z" fill="#5044E5"/>
<path d="M31.032 57L27.224 47.116H29.576L32.474 55.11H31.508L34.448 47.116H36.772L32.922 57H31.032ZM37.7365 57V50.196H39.8785V57H37.7365ZM38.8145 49.258C38.4785 49.258 38.1985 49.146 37.9745 48.922C37.7598 48.6887 37.6525 48.4087 37.6525 48.082C37.6525 47.746 37.7598 47.466 37.9745 47.242C38.1985 47.018 38.4785 46.906 38.8145 46.906C39.1505 46.906 39.4258 47.018 39.6405 47.242C39.8551 47.466 39.9625 47.746 39.9625 48.082C39.9625 48.4087 39.8551 48.6887 39.6405 48.922C39.4258 49.146 39.1505 49.258 38.8145 49.258ZM43.8649 57.168C43.4635 57.168 43.0669 57.1167 42.6749 57.014C42.2922 56.9113 41.9329 56.7667 41.5969 56.58C41.2702 56.384 40.9902 56.16 40.7569 55.908L41.9749 54.676C42.1989 54.9187 42.4649 55.11 42.7729 55.25C43.0809 55.3807 43.4169 55.446 43.7809 55.446C44.0329 55.446 44.2242 55.4087 44.3549 55.334C44.4949 55.2593 44.5649 55.1567 44.5649 55.026C44.5649 54.858 44.4809 54.732 44.3129 54.648C44.1542 54.5547 43.9489 54.4753 43.6969 54.41C43.4449 54.3353 43.1789 54.256 42.8989 54.172C42.6189 54.088 42.3529 53.9713 42.1009 53.822C41.8489 53.6727 41.6435 53.4673 41.4849 53.206C41.3262 52.9353 41.2469 52.5947 41.2469 52.184C41.2469 51.7453 41.3589 51.3673 41.5829 51.05C41.8069 50.7233 42.1242 50.4667 42.5349 50.28C42.9455 50.0933 43.4262 50 43.9769 50C44.5555 50 45.0875 50.1027 45.5729 50.308C46.0675 50.504 46.4689 50.798 46.7769 51.19L45.5589 52.422C45.3442 52.17 45.1015 51.9927 44.8309 51.89C44.5695 51.7873 44.3129 51.736 44.0609 51.736C43.8182 51.736 43.6362 51.7733 43.5149 51.848C43.3935 51.9133 43.3329 52.0113 43.3329 52.142C43.3329 52.282 43.4122 52.394 43.5709 52.478C43.7295 52.562 43.9349 52.6367 44.1869 52.702C44.4389 52.7673 44.7049 52.8467 44.9849 52.94C45.2649 53.0333 45.5309 53.1593 45.7829 53.318C46.0349 53.4767 46.2402 53.6913 46.3989 53.962C46.5575 54.2233 46.6369 54.5687 46.6369 54.998C46.6369 55.6607 46.3849 56.188 45.8809 56.58C45.3862 56.972 44.7142 57.168 43.8649 57.168ZM47.799 57V50.196H49.941V57H47.799ZM48.877 49.258C48.541 49.258 48.261 49.146 48.037 48.922C47.8223 48.6887 47.715 48.4087 47.715 48.082C47.715 47.746 47.8223 47.466 48.037 47.242C48.261 47.018 48.541 46.906 48.877 46.906C49.213 46.906 49.4883 47.018 49.703 47.242C49.9176 47.466 50.025 47.746 50.025 48.082C50.025 48.4087 49.9176 48.6887 49.703 48.922C49.4883 49.146 49.213 49.258 48.877 49.258ZM54.7254 57.154C54.0254 57.154 53.3907 57 52.8214 56.692C52.2614 56.3747 51.818 55.9453 51.4914 55.404C51.1647 54.8627 51.0014 54.256 51.0014 53.584C51.0014 52.912 51.1647 52.31 51.4914 51.778C51.818 51.246 52.2614 50.826 52.8214 50.518C53.3814 50.2007 54.016 50.042 54.7254 50.042C55.4347 50.042 56.0694 50.196 56.6294 50.504C57.1894 50.812 57.6327 51.2367 57.9594 51.778C58.286 52.31 58.4494 52.912 58.4494 53.584C58.4494 54.256 58.286 54.8627 57.9594 55.404C57.6327 55.9453 57.1894 56.3747 56.6294 56.692C56.0694 57 55.4347 57.154 54.7254 57.154ZM54.7254 55.208C55.0334 55.208 55.304 55.1427 55.5374 55.012C55.7707 54.872 55.948 54.6807 56.0694 54.438C56.2 54.186 56.2654 53.9013 56.2654 53.584C56.2654 53.2667 56.2 52.9913 56.0694 52.758C55.9387 52.5153 55.7567 52.3287 55.5234 52.198C55.2994 52.058 55.0334 51.988 54.7254 51.988C54.4267 51.988 54.1607 52.058 53.9274 52.198C53.694 52.3287 53.512 52.5153 53.3814 52.758C53.2507 53.0007 53.1854 53.2807 53.1854 53.598C53.1854 53.906 53.2507 54.186 53.3814 54.438C53.512 54.6807 53.694 54.872 53.9274 55.012C54.1607 55.1427 54.4267 55.208 54.7254 55.208ZM64.0098 57V53.122C64.0098 52.7673 63.8978 52.4827 63.6738 52.268C63.4591 52.044 63.1838 51.932 62.8478 51.932C62.6144 51.932 62.4091 51.9833 62.2318 52.086C62.0544 52.1793 61.9144 52.3193 61.8118 52.506C61.7091 52.6833 61.6578 52.8887 61.6578 53.122L60.8318 52.716C60.8318 52.184 60.9484 51.7173 61.1818 51.316C61.4151 50.9147 61.7371 50.6067 62.1478 50.392C62.5678 50.168 63.0391 50.056 63.5618 50.056C64.0658 50.056 64.5091 50.1773 64.8918 50.42C65.2838 50.6533 65.5918 50.966 65.8158 51.358C66.0398 51.75 66.1518 52.1793 66.1518 52.646V57H64.0098ZM59.5158 57V50.196H61.6578V57H59.5158Z" fill="#5044E5"/>
<path d="M73.3575 57.154C72.5455 57.154 71.8455 57.0233 71.2575 56.762C70.6788 56.4913 70.1468 56.0853 69.6615 55.544L71.0895 54.13C71.4068 54.494 71.7568 54.7787 72.1395 54.984C72.5315 55.18 72.9842 55.278 73.4975 55.278C73.9642 55.278 74.3235 55.194 74.5755 55.026C74.8368 54.858 74.9675 54.6247 74.9675 54.326C74.9675 54.0553 74.8835 53.836 74.7155 53.668C74.5475 53.5 74.3235 53.3553 74.0435 53.234C73.7728 53.1127 73.4695 52.996 73.1335 52.884C72.8068 52.772 72.4802 52.646 72.1535 52.506C71.8268 52.3567 71.5235 52.1747 71.2435 51.96C70.9728 51.736 70.7535 51.4607 70.5855 51.134C70.4175 50.798 70.3335 50.378 70.3335 49.874C70.3335 49.2673 70.4782 48.7447 70.7675 48.306C71.0662 47.8673 71.4768 47.536 71.9995 47.312C72.5222 47.0787 73.1242 46.962 73.8055 46.962C74.4962 46.962 75.1262 47.0833 75.6955 47.326C76.2742 47.5687 76.7502 47.9 77.1235 48.32L75.6955 49.734C75.3968 49.426 75.0935 49.1973 74.7855 49.048C74.4868 48.8987 74.1462 48.824 73.7635 48.824C73.3808 48.824 73.0775 48.8987 72.8535 49.048C72.6295 49.188 72.5175 49.3933 72.5175 49.664C72.5175 49.916 72.6015 50.1213 72.7695 50.28C72.9375 50.4293 73.1568 50.56 73.4275 50.672C73.7075 50.784 74.0108 50.896 74.3375 51.008C74.6735 51.12 75.0048 51.2507 75.3315 51.4C75.6582 51.5493 75.9568 51.7407 76.2275 51.974C76.5075 52.198 76.7315 52.4873 76.8995 52.842C77.0675 53.1873 77.1515 53.6167 77.1515 54.13C77.1515 55.0727 76.8155 55.8147 76.1435 56.356C75.4715 56.888 74.5428 57.154 73.3575 57.154ZM80.3052 57.028L77.5052 50.196H79.8152L81.5932 55.614H80.7392L82.5592 50.196H84.8692L81.9572 57.028H80.3052ZM78.5552 59.87L80.5992 55.46L81.9572 57.028L80.7532 59.87H78.5552ZM90.0137 57V53.122C90.0137 52.7673 89.9017 52.4827 89.6777 52.268C89.463 52.044 89.1877 51.932 88.8517 51.932C88.6183 51.932 88.413 51.9833 88.2357 52.086C88.0583 52.1793 87.9183 52.3193 87.8157 52.506C87.713 52.6833 87.6617 52.8887 87.6617 53.122L86.8357 52.716C86.8357 52.184 86.9523 51.7173 87.1857 51.316C87.419 50.9147 87.741 50.6067 88.1517 50.392C88.5717 50.168 89.043 50.056 89.5657 50.056C90.0697 50.056 90.513 50.1773 90.8957 50.42C91.2877 50.6533 91.5957 50.966 91.8197 51.358C92.0437 51.75 92.1557 52.1793 92.1557 52.646V57H90.0137ZM85.5197 57V50.196H87.6617V57H85.5197ZM96.8214 57.154C96.1214 57.154 95.4867 57 94.9174 56.692C94.3481 56.384 93.9001 55.9593 93.5734 55.418C93.2467 54.8767 93.0834 54.27 93.0834 53.598C93.0834 52.9167 93.2467 52.31 93.5734 51.778C93.9094 51.2367 94.3621 50.812 94.9314 50.504C95.5007 50.196 96.1401 50.042 96.8494 50.042C97.3814 50.042 97.8667 50.1353 98.3054 50.322C98.7534 50.4993 99.1501 50.77 99.4954 51.134L98.1234 52.506C97.9647 52.3287 97.7781 52.198 97.5634 52.114C97.3581 52.03 97.1201 51.988 96.8494 51.988C96.5414 51.988 96.2661 52.058 96.0234 52.198C95.7901 52.3287 95.6034 52.5153 95.4634 52.758C95.3327 52.9913 95.2674 53.2667 95.2674 53.584C95.2674 53.9013 95.3327 54.1813 95.4634 54.424C95.6034 54.6667 95.7947 54.858 96.0374 54.998C96.2801 55.138 96.5507 55.208 96.8494 55.208C97.1294 55.208 97.3767 55.1613 97.5914 55.068C97.8154 54.9653 98.0067 54.8253 98.1654 54.648L99.5234 56.02C99.1687 56.3933 98.7674 56.678 98.3194 56.874C97.8714 57.0607 97.3721 57.154 96.8214 57.154ZM103.673 57.154C102.935 57.154 102.277 57.0047 101.699 56.706C101.129 56.398 100.681 55.9733 100.355 55.432C100.028 54.8907 99.8646 54.2793 99.8646 53.598C99.8646 52.9167 100.023 52.31 100.341 51.778C100.667 51.2367 101.106 50.812 101.657 50.504C102.207 50.196 102.828 50.042 103.519 50.042C104.191 50.042 104.783 50.1867 105.297 50.476C105.81 50.7653 106.211 51.1667 106.501 51.68C106.799 52.1933 106.949 52.7813 106.949 53.444C106.949 53.5653 106.939 53.696 106.921 53.836C106.911 53.9667 106.888 54.1207 106.851 54.298L100.985 54.312V52.842L105.941 52.828L105.017 53.444C105.007 53.052 104.947 52.73 104.835 52.478C104.723 52.2167 104.555 52.0207 104.331 51.89C104.116 51.75 103.85 51.68 103.533 51.68C103.197 51.68 102.903 51.7593 102.651 51.918C102.408 52.0673 102.217 52.282 102.077 52.562C101.946 52.842 101.881 53.1827 101.881 53.584C101.881 53.9853 101.951 54.3307 102.091 54.62C102.24 54.9 102.445 55.1193 102.707 55.278C102.977 55.4273 103.295 55.502 103.659 55.502C103.995 55.502 104.298 55.446 104.569 55.334C104.839 55.2127 105.077 55.0353 105.283 54.802L106.459 55.978C106.123 56.37 105.717 56.664 105.241 56.86C104.765 57.056 104.242 57.154 103.673 57.154ZM110.881 57.14C110.237 57.14 109.663 56.986 109.159 56.678C108.664 56.37 108.272 55.95 107.983 55.418C107.703 54.886 107.563 54.2793 107.563 53.598C107.563 52.9167 107.703 52.31 107.983 51.778C108.272 51.246 108.664 50.826 109.159 50.518C109.663 50.21 110.237 50.056 110.881 50.056C111.347 50.056 111.767 50.1447 112.141 50.322C112.523 50.4993 112.836 50.7467 113.079 51.064C113.331 51.372 113.471 51.7267 113.499 52.128V54.998C113.471 55.3993 113.335 55.7633 113.093 56.09C112.85 56.4073 112.537 56.664 112.155 56.86C111.772 57.0467 111.347 57.14 110.881 57.14ZM111.259 55.208C111.567 55.208 111.833 55.1427 112.057 55.012C112.281 54.872 112.458 54.6807 112.589 54.438C112.719 54.1953 112.785 53.9153 112.785 53.598C112.785 53.2807 112.719 53.0053 112.589 52.772C112.467 52.5293 112.29 52.338 112.057 52.198C111.833 52.058 111.571 51.988 111.273 51.988C110.974 51.988 110.708 52.058 110.475 52.198C110.251 52.338 110.069 52.5293 109.929 52.772C109.798 53.0147 109.733 53.29 109.733 53.598C109.733 53.906 109.798 54.1813 109.929 54.424C110.059 54.6667 110.241 54.858 110.475 54.998C110.708 55.138 110.969 55.208 111.259 55.208ZM114.801 57H112.701V55.166L113.023 53.514L112.659 51.862V46.836H114.801V57Z" fill="#0F0E0E"/>
<path d="M139.625 19.125H138.5C137.903 19.125 137.331 18.8879 136.909 18.466C136.487 18.044 136.25 17.4717 136.25 16.875V5.625C136.25 5.02826 136.487 4.45597 136.909 4.03401C137.331 3.61205 137.903 3.375 138.5 3.375H156.5C157.097 3.375 157.669 3.61205 158.091 4.03401C158.513 4.45597 158.75 5.02826 158.75 5.625V16.875C158.75 17.4717 158.513 18.044 158.091 18.466C157.669 18.8879 157.097 19.125 156.5 19.125H155.375M147.5 16.875L153.125 23.625H141.875L147.5 16.875Z" stroke="#050505" stroke-width="4" stroke-linecap="round" stroke-linejoin="round"/>
<defs>
<linearGradient id="paint0_linear_0_1" x1="5" y1="40" x2="1825" y2="40" gradientUnits="userSpaceOnUse">
<stop offset="1" stop-color="#5044E5"/>
</linearGradient>
</defs>
</svg>
