<svg width="108" height="28" viewBox="0 0 108 28" fill="none" xmlns="http://www.w3.org/2000/svg">
<path d="M5.061 17V2.384H8.358V17H5.061ZM0.42 5.051V2.174H12.999V5.051H0.42ZM21.2871 17V11.183C21.2871 10.651 21.1191 10.224 20.7831 9.902C20.4611 9.566 20.0481 9.398 19.5441 9.398C19.1941 9.398 18.8861 9.475 18.6201 9.629C18.3541 9.769 18.1441 9.979 17.9901 10.259C17.8361 10.525 17.7591 10.833 17.7591 11.183L16.5201 10.574C16.5201 9.776 16.6881 9.076 17.0241 8.474C17.3601 7.872 17.8291 7.41 18.4311 7.088C19.0331 6.752 19.7261 6.584 20.5101 6.584C21.3081 6.584 22.0081 6.752 22.6101 7.088C23.2121 7.41 23.6741 7.865 23.9961 8.453C24.3321 9.027 24.5001 9.699 24.5001 10.469V17H21.2871ZM14.5461 17V1.754H17.7591V17H14.5461ZM26.5637 17V6.794H29.7767V17H26.5637ZM28.1807 5.387C27.6767 5.387 27.2567 5.219 26.9207 4.883C26.5987 4.533 26.4377 4.113 26.4377 3.623C26.4377 3.119 26.5987 2.699 26.9207 2.363C27.2567 2.027 27.6767 1.859 28.1807 1.859C28.6847 1.859 29.0977 2.027 29.4197 2.363C29.7417 2.699 29.9027 3.119 29.9027 3.623C29.9027 4.113 29.7417 4.533 29.4197 4.883C29.0977 5.219 28.6847 5.387 28.1807 5.387ZM38.7803 17V11.183C38.7803 10.651 38.6123 10.224 38.2763 9.902C37.9543 9.566 37.5413 9.398 37.0373 9.398C36.6873 9.398 36.3793 9.475 36.1133 9.629C35.8473 9.769 35.6373 9.979 35.4833 10.259C35.3293 10.525 35.2523 10.833 35.2523 11.183L34.0133 10.574C34.0133 9.776 34.1883 9.076 34.5383 8.474C34.8883 7.872 35.3713 7.41 35.9873 7.088C36.6173 6.752 37.3243 6.584 38.1083 6.584C38.8643 6.584 39.5293 6.766 40.1033 7.13C40.6913 7.48 41.1533 7.949 41.4893 8.537C41.8253 9.125 41.9933 9.769 41.9933 10.469V17H38.7803ZM32.0393 17V6.794H35.2523V17H32.0393ZM50.5879 17L47.0179 11.708L50.5669 6.794H54.1579L49.8739 12.317L49.9789 10.994L54.3679 17H50.5879ZM44.0569 17V1.754H47.2699V17H44.0569Z" fill="#0F0E0E"/>
<path d="M60.2667 17.231C59.0487 17.231 57.9987 17.035 57.1167 16.643C56.2487 16.237 55.4507 15.628 54.7227 14.816L56.8647 12.695C57.3407 13.241 57.8657 13.668 58.4397 13.976C59.0277 14.27 59.7067 14.417 60.4767 14.417C61.1767 14.417 61.7157 14.291 62.0937 14.039C62.4857 13.787 62.6817 13.437 62.6817 12.989C62.6817 12.583 62.5557 12.254 62.3037 12.002C62.0517 11.75 61.7157 11.533 61.2957 11.351C60.8897 11.169 60.4347 10.994 59.9307 10.826C59.4407 10.658 58.9507 10.469 58.4607 10.259C57.9707 10.035 57.5157 9.762 57.0957 9.44C56.6897 9.104 56.3607 8.691 56.1087 8.201C55.8567 7.697 55.7307 7.067 55.7307 6.311C55.7307 5.401 55.9477 4.617 56.3817 3.959C56.8297 3.301 57.4457 2.804 58.2297 2.468C59.0137 2.118 59.9167 1.943 60.9387 1.943C61.9747 1.943 62.9197 2.125 63.7737 2.489C64.6417 2.853 65.3557 3.35 65.9157 3.98L63.7737 6.101C63.3257 5.639 62.8707 5.296 62.4087 5.072C61.9607 4.848 61.4497 4.736 60.8757 4.736C60.3017 4.736 59.8467 4.848 59.5107 5.072C59.1747 5.282 59.0067 5.59 59.0067 5.996C59.0067 6.374 59.1327 6.682 59.3847 6.92C59.6367 7.144 59.9657 7.34 60.3717 7.508C60.7917 7.676 61.2467 7.844 61.7367 8.012C62.2407 8.18 62.7377 8.376 63.2277 8.6C63.7177 8.824 64.1657 9.111 64.5717 9.461C64.9917 9.797 65.3277 10.231 65.5797 10.763C65.8317 11.281 65.9577 11.925 65.9577 12.695C65.9577 14.109 65.4537 15.222 64.4457 16.034C63.4377 16.832 62.0447 17.231 60.2667 17.231ZM70.6883 17.042L66.4883 6.794H69.9533L72.6203 14.921H71.3393L74.0693 6.794H77.5343L73.1663 17.042H70.6883ZM68.0633 21.305L71.1293 14.69L73.1663 17.042L71.3603 21.305H68.0633ZM85.251 17V11.183C85.251 10.651 85.083 10.224 84.747 9.902C84.425 9.566 84.012 9.398 83.508 9.398C83.158 9.398 82.85 9.475 82.584 9.629C82.318 9.769 82.108 9.979 81.954 10.259C81.8 10.525 81.723 10.833 81.723 11.183L80.484 10.574C80.484 9.776 80.659 9.076 81.009 8.474C81.359 7.872 81.842 7.41 82.458 7.088C83.088 6.752 83.795 6.584 84.579 6.584C85.335 6.584 86 6.766 86.574 7.13C87.162 7.48 87.624 7.949 87.96 8.537C88.296 9.125 88.464 9.769 88.464 10.469V17H85.251ZM78.51 17V6.794H81.723V17H78.51Z" fill="#5044E5"/>
<path d="M7.736 26L5.152 19.293H6.748L8.7145 24.7175H8.059L10.054 19.293H11.631L9.0185 26H7.736ZM12.2855 26V21.383H13.739V26H12.2855ZM13.017 20.7465C12.789 20.7465 12.599 20.6705 12.447 20.5185C12.3013 20.3602 12.2285 20.1702 12.2285 19.9485C12.2285 19.7205 12.3013 19.5305 12.447 19.3785C12.599 19.2265 12.789 19.1505 13.017 19.1505C13.245 19.1505 13.4318 19.2265 13.5775 19.3785C13.7231 19.5305 13.796 19.7205 13.796 19.9485C13.796 20.1702 13.7231 20.3602 13.5775 20.5185C13.4318 20.6705 13.245 20.7465 13.017 20.7465ZM16.444 26.114C16.1717 26.114 15.9025 26.0792 15.6365 26.0095C15.3768 25.9398 15.133 25.8417 14.905 25.715C14.6833 25.582 14.4933 25.43 14.335 25.259L15.1615 24.423C15.3135 24.5877 15.494 24.7175 15.703 24.8125C15.912 24.9012 16.14 24.9455 16.387 24.9455C16.558 24.9455 16.6878 24.9202 16.7765 24.8695C16.8715 24.8188 16.919 24.7492 16.919 24.6605C16.919 24.5465 16.862 24.461 16.748 24.404C16.6403 24.3407 16.501 24.2868 16.33 24.2425C16.159 24.1918 15.9785 24.138 15.7885 24.081C15.5985 24.024 15.418 23.9448 15.247 23.8435C15.076 23.7422 14.9367 23.6028 14.829 23.4255C14.7213 23.2418 14.6675 23.0107 14.6675 22.732C14.6675 22.4343 14.7435 22.1778 14.8955 21.9625C15.0475 21.7408 15.2628 21.5667 15.5415 21.44C15.8202 21.3133 16.1463 21.25 16.52 21.25C16.9127 21.25 17.2737 21.3197 17.603 21.459C17.9387 21.592 18.211 21.7915 18.42 22.0575L17.5935 22.8935C17.4478 22.7225 17.2832 22.6022 17.0995 22.5325C16.9222 22.4628 16.748 22.428 16.577 22.428C16.4123 22.428 16.2888 22.4533 16.2065 22.504C16.1242 22.5483 16.083 22.6148 16.083 22.7035C16.083 22.7985 16.1368 22.8745 16.2445 22.9315C16.3522 22.9885 16.4915 23.0392 16.6625 23.0835C16.8335 23.1278 17.014 23.1817 17.204 23.245C17.394 23.3083 17.5745 23.3938 17.7455 23.5015C17.9165 23.6092 18.0558 23.7548 18.1635 23.9385C18.2712 24.1158 18.325 24.3502 18.325 24.6415C18.325 25.0912 18.154 25.449 17.812 25.715C17.4763 25.981 17.0203 26.114 16.444 26.114ZM19.1136 26V21.383H20.5671V26H19.1136ZM19.8451 20.7465C19.6171 20.7465 19.4271 20.6705 19.2751 20.5185C19.1294 20.3602 19.0566 20.1702 19.0566 19.9485C19.0566 19.7205 19.1294 19.5305 19.2751 19.3785C19.4271 19.2265 19.6171 19.1505 19.8451 19.1505C20.0731 19.1505 20.2599 19.2265 20.4056 19.3785C20.5513 19.5305 20.6241 19.7205 20.6241 19.9485C20.6241 20.1702 20.5513 20.3602 20.4056 20.5185C20.2599 20.6705 20.0731 20.7465 19.8451 20.7465ZM23.8136 26.1045C23.3386 26.1045 22.908 26 22.5216 25.791C22.1416 25.5757 21.8408 25.2843 21.6191 24.917C21.3975 24.5497 21.2866 24.138 21.2866 23.682C21.2866 23.226 21.3975 22.8175 21.6191 22.4565C21.8408 22.0955 22.1416 21.8105 22.5216 21.6015C22.9016 21.3862 23.3323 21.2785 23.8136 21.2785C24.295 21.2785 24.7256 21.383 25.1056 21.592C25.4856 21.801 25.7865 22.0892 26.0081 22.4565C26.2298 22.8175 26.3406 23.226 26.3406 23.682C26.3406 24.138 26.2298 24.5497 26.0081 24.917C25.7865 25.2843 25.4856 25.5757 25.1056 25.791C24.7256 26 24.295 26.1045 23.8136 26.1045ZM23.8136 24.784C24.0226 24.784 24.2063 24.7397 24.3646 24.651C24.523 24.556 24.6433 24.4262 24.7256 24.2615C24.8143 24.0905 24.8586 23.8973 24.8586 23.682C24.8586 23.4667 24.8143 23.2798 24.7256 23.1215C24.637 22.9568 24.5135 22.8302 24.3551 22.7415C24.2031 22.6465 24.0226 22.599 23.8136 22.599C23.611 22.599 23.4305 22.6465 23.2721 22.7415C23.1138 22.8302 22.9903 22.9568 22.9016 23.1215C22.813 23.2862 22.7686 23.4762 22.7686 23.6915C22.7686 23.9005 22.813 24.0905 22.9016 24.2615C22.9903 24.4262 23.1138 24.556 23.2721 24.651C23.4305 24.7397 23.611 24.784 23.8136 24.784ZM30.1138 26V23.3685C30.1138 23.1278 30.0378 22.9347 29.8858 22.789C29.7401 22.637 29.5533 22.561 29.3253 22.561C29.1669 22.561 29.0276 22.5958 28.9073 22.6655C28.7869 22.7288 28.6919 22.8238 28.6223 22.9505C28.5526 23.0708 28.5178 23.2102 28.5178 23.3685L27.9573 23.093C27.9573 22.732 28.0364 22.4153 28.1948 22.143C28.3531 21.8707 28.5716 21.6617 28.8503 21.516C29.1353 21.364 29.4551 21.288 29.8098 21.288C30.1518 21.288 30.4526 21.3703 30.7123 21.535C30.9783 21.6933 31.1873 21.9055 31.3393 22.1715C31.4913 22.4375 31.5673 22.7288 31.5673 23.0455V26H30.1138ZM27.0643 26V21.383H28.5178V26H27.0643Z" fill="#5044E5"/>
<path d="M36.4569 26.1045C35.9059 26.1045 35.4309 26.0158 35.0319 25.8385C34.6392 25.6548 34.2782 25.3793 33.9489 25.012L34.9179 24.0525C35.1332 24.2995 35.3707 24.4927 35.6304 24.632C35.8964 24.765 36.2035 24.8315 36.5519 24.8315C36.8685 24.8315 37.1124 24.7745 37.2834 24.6605C37.4607 24.5465 37.5494 24.3882 37.5494 24.1855C37.5494 24.0018 37.4924 23.853 37.3784 23.739C37.2644 23.625 37.1124 23.5268 36.9224 23.4445C36.7387 23.3622 36.5329 23.283 36.3049 23.207C36.0832 23.131 35.8615 23.0455 35.6399 22.9505C35.4182 22.8492 35.2124 22.7257 35.0224 22.58C34.8387 22.428 34.6899 22.2412 34.5759 22.0195C34.4619 21.7915 34.4049 21.5065 34.4049 21.1645C34.4049 20.7528 34.503 20.3982 34.6994 20.1005C34.902 19.8028 35.1807 19.578 35.5354 19.426C35.89 19.2677 36.2985 19.1885 36.7609 19.1885C37.2295 19.1885 37.657 19.2708 38.0434 19.4355C38.436 19.6002 38.759 19.825 39.0124 20.11L38.0434 21.0695C37.8407 20.8605 37.6349 20.7053 37.4259 20.604C37.2232 20.5027 36.992 20.452 36.7324 20.452C36.4727 20.452 36.2669 20.5027 36.1149 20.604C35.9629 20.699 35.8869 20.8383 35.8869 21.022C35.8869 21.193 35.9439 21.3323 36.0579 21.44C36.1719 21.5413 36.3207 21.63 36.5044 21.706C36.6944 21.782 36.9002 21.858 37.1219 21.934C37.3499 22.01 37.5747 22.0987 37.7964 22.2C38.018 22.3013 38.2207 22.4312 38.4044 22.5895C38.5944 22.7415 38.7464 22.9378 38.8604 23.1785C38.9744 23.4128 39.0314 23.7042 39.0314 24.0525C39.0314 24.6922 38.8034 25.1957 38.3474 25.563C37.8914 25.924 37.2612 26.1045 36.4569 26.1045ZM41.1714 26.019L39.2714 21.383H40.8389L42.0454 25.0595H41.4659L42.7009 21.383H44.2684L42.2924 26.019H41.1714ZM39.9839 27.9475L41.3709 24.955L42.2924 26.019L41.4754 27.9475H39.9839ZM47.7593 26V23.3685C47.7593 23.1278 47.6833 22.9347 47.5313 22.789C47.3856 22.637 47.1988 22.561 46.9708 22.561C46.8124 22.561 46.6731 22.5958 46.5528 22.6655C46.4324 22.7288 46.3374 22.8238 46.2678 22.9505C46.1981 23.0708 46.1633 23.2102 46.1633 23.3685L45.6028 23.093C45.6028 22.732 45.6819 22.4153 45.8403 22.143C45.9986 21.8707 46.2171 21.6617 46.4958 21.516C46.7808 21.364 47.1006 21.288 47.4553 21.288C47.7973 21.288 48.0981 21.3703 48.3578 21.535C48.6238 21.6933 48.8328 21.9055 48.9848 22.1715C49.1368 22.4375 49.2128 22.7288 49.2128 23.0455V26H47.7593ZM44.7098 26V21.383H46.1633V26H44.7098ZM52.3788 26.1045C51.9038 26.1045 51.4731 26 51.0868 25.791C50.7005 25.582 50.3965 25.2938 50.1748 24.9265C49.9531 24.5592 49.8423 24.1475 49.8423 23.6915C49.8423 23.2292 49.9531 22.8175 50.1748 22.4565C50.4028 22.0892 50.71 21.801 51.0963 21.592C51.4826 21.383 51.9165 21.2785 52.3978 21.2785C52.7588 21.2785 53.0881 21.3418 53.3858 21.4685C53.6898 21.5888 53.959 21.7725 54.1933 22.0195L53.2623 22.9505C53.1546 22.8302 53.028 22.7415 52.8823 22.6845C52.743 22.6275 52.5815 22.599 52.3978 22.599C52.1888 22.599 52.002 22.6465 51.8373 22.7415C51.679 22.8302 51.5523 22.9568 51.4573 23.1215C51.3686 23.2798 51.3243 23.4667 51.3243 23.682C51.3243 23.8973 51.3686 24.0873 51.4573 24.252C51.5523 24.4167 51.6821 24.5465 51.8468 24.6415C52.0115 24.7365 52.1951 24.784 52.3978 24.784C52.5878 24.784 52.7556 24.7523 52.9013 24.689C53.0533 24.6193 53.1831 24.5243 53.2908 24.404L54.2123 25.335C53.9716 25.5883 53.6993 25.7815 53.3953 25.9145C53.0913 26.0412 52.7525 26.1045 52.3788 26.1045ZM57.0279 26.1045C56.5275 26.1045 56.081 26.0032 55.6884 25.8005C55.302 25.5915 54.998 25.3033 54.7764 24.936C54.5547 24.5687 54.4439 24.1538 54.4439 23.6915C54.4439 23.2292 54.5515 22.8175 54.7669 22.4565C54.9885 22.0892 55.2862 21.801 55.6599 21.592C56.0335 21.383 56.4547 21.2785 56.9234 21.2785C57.3794 21.2785 57.7815 21.3767 58.1299 21.573C58.4782 21.7693 58.7505 22.0417 58.9469 22.39C59.1495 22.7383 59.2509 23.1373 59.2509 23.587C59.2509 23.6693 59.2445 23.758 59.2319 23.853C59.2255 23.9417 59.2097 24.0462 59.1844 24.1665L55.2039 24.176V23.1785L58.5669 23.169L57.9399 23.587C57.9335 23.321 57.8924 23.1025 57.8164 22.9315C57.7404 22.7542 57.6264 22.6212 57.4744 22.5325C57.3287 22.4375 57.1482 22.39 56.9329 22.39C56.7049 22.39 56.5054 22.4438 56.3344 22.5515C56.1697 22.6528 56.0399 22.7985 55.9449 22.9885C55.8562 23.1785 55.8119 23.4097 55.8119 23.682C55.8119 23.9543 55.8594 24.1887 55.9544 24.385C56.0557 24.575 56.195 24.7238 56.3724 24.8315C56.556 24.9328 56.7714 24.9835 57.0184 24.9835C57.2464 24.9835 57.4522 24.9455 57.6359 24.8695C57.8195 24.7872 57.981 24.6668 58.1204 24.5085L58.9184 25.3065C58.6904 25.5725 58.4149 25.772 58.0919 25.905C57.7689 26.038 57.4142 26.1045 57.0279 26.1045ZM61.919 26.095C61.482 26.095 61.0925 25.9905 60.7505 25.7815C60.4148 25.5725 60.1488 25.2875 59.9525 24.9265C59.7625 24.5655 59.6675 24.1538 59.6675 23.6915C59.6675 23.2292 59.7625 22.8175 59.9525 22.4565C60.1488 22.0955 60.4148 21.8105 60.7505 21.6015C61.0925 21.3925 61.482 21.288 61.919 21.288C62.2356 21.288 62.5206 21.3482 62.774 21.4685C63.0336 21.5888 63.2458 21.7567 63.4105 21.972C63.5815 22.181 63.6765 22.4217 63.6955 22.694V24.6415C63.6765 24.9138 63.5846 25.1608 63.42 25.3825C63.2553 25.5978 63.0431 25.772 62.7835 25.905C62.5238 26.0317 62.2356 26.095 61.919 26.095ZM62.1755 24.784C62.3845 24.784 62.565 24.7397 62.717 24.651C62.869 24.556 62.9893 24.4262 63.078 24.2615C63.1666 24.0968 63.211 23.9068 63.211 23.6915C63.211 23.4762 63.1666 23.2893 63.078 23.131C62.9956 22.9663 62.8753 22.8365 62.717 22.7415C62.565 22.6465 62.3876 22.599 62.185 22.599C61.9823 22.599 61.8018 22.6465 61.6435 22.7415C61.4915 22.8365 61.368 22.9663 61.273 23.131C61.1843 23.2957 61.14 23.4825 61.14 23.6915C61.14 23.9005 61.1843 24.0873 61.273 24.252C61.3616 24.4167 61.4851 24.5465 61.6435 24.6415C61.8018 24.7365 61.9791 24.784 62.1755 24.784ZM64.579 26H63.154V24.7555L63.3725 23.6345L63.1255 22.5135V19.103H64.579V26Z" fill="#0F0E0E"/>
<g clip-path="url(#clip0_0_1)">
<path d="M105.63 8.63499L105.555 9.20522C105.377 10.5417 104.765 11.7861 103.808 12.7529C102.851 13.7197 101.602 14.357 100.246 14.5699C98.8897 14.7827 97.5 14.5596 96.2837 13.9339C95.0675 13.3082 94.0899 12.3134 93.4968 11.0979C92.9037 9.8823 92.7268 8.51112 92.9925 7.18884C93.2583 5.86655 93.9524 4.66399 94.9713 3.76052C95.9903 2.85704 97.2795 2.30106 98.6468 2.17548C100.014 2.04991 101.386 2.36147 102.558 3.06371M106.21 4.2467L99.0751 9.64767L97.4261 7.54721" stroke="#5044E5" stroke-width="2" stroke-linecap="round" stroke-linejoin="round"/>
</g>
<defs>
<clipPath id="clip0_0_1">
<rect width="15.2784" height="15.0047" fill="white" transform="matrix(0.992005 0.126199 -0.130925 0.991392 92.6437 0)"/>
</clipPath>
</defs>
</svg>
