<svg width="203" height="62" viewBox="0 0 203 62" fill="none" xmlns="http://www.w3.org/2000/svg">
<path d="M31 57C45.3594 57 57 45.3594 57 31C57 16.6406 45.3594 5 31 5C16.6406 5 5 16.6406 5 31C5 45.3594 16.6406 57 31 57Z" fill="#5044E5" stroke="url(#paint0_linear_0_1)" stroke-width="10"/>
<path d="M67.23 31V10.12H71.94V31H67.23ZM60.6 13.93V9.82H78.57V13.93H60.6ZM90.4102 31V22.69C90.4102 21.93 90.1702 21.32 89.6902 20.86C89.2302 20.38 88.6402 20.14 87.9202 20.14C87.4202 20.14 86.9802 20.25 86.6002 20.47C86.2202 20.67 85.9202 20.97 85.7002 21.37C85.4802 21.75 85.3702 22.19 85.3702 22.69L83.6002 21.82C83.6002 20.68 83.8402 19.68 84.3202 18.82C84.8002 17.96 85.4702 17.3 86.3302 16.84C87.1902 16.36 88.1802 16.12 89.3002 16.12C90.4402 16.12 91.4402 16.36 92.3002 16.84C93.1602 17.3 93.8202 17.95 94.2802 18.79C94.7602 19.61 95.0002 20.57 95.0002 21.67V31H90.4102ZM80.7802 31V9.22H85.3702V31H80.7802ZM97.9481 31V16.42H102.538V31H97.9481ZM100.258 14.41C99.5381 14.41 98.9381 14.17 98.4581 13.69C97.9981 13.19 97.7681 12.59 97.7681 11.89C97.7681 11.17 97.9981 10.57 98.4581 10.09C98.9381 9.61 99.5381 9.37 100.258 9.37C100.978 9.37 101.568 9.61 102.028 10.09C102.488 10.57 102.718 11.17 102.718 11.89C102.718 12.59 102.488 13.19 102.028 13.69C101.568 14.17 100.978 14.41 100.258 14.41ZM115.4 31V22.69C115.4 21.93 115.16 21.32 114.68 20.86C114.22 20.38 113.63 20.14 112.91 20.14C112.41 20.14 111.97 20.25 111.59 20.47C111.21 20.67 110.91 20.97 110.69 21.37C110.47 21.75 110.36 22.19 110.36 22.69L108.59 21.82C108.59 20.68 108.84 19.68 109.34 18.82C109.84 17.96 110.53 17.3 111.41 16.84C112.31 16.36 113.32 16.12 114.44 16.12C115.52 16.12 116.47 16.38 117.29 16.9C118.13 17.4 118.79 18.07 119.27 18.91C119.75 19.75 119.99 20.67 119.99 21.67V31H115.4ZM105.77 31V16.42H110.36V31H105.77ZM132.268 31L127.168 23.44L132.238 16.42H137.368L131.248 24.31L131.398 22.42L137.668 31H132.268ZM122.938 31V9.22H127.528V31H122.938Z" fill="#0F0E0E"/>
<path d="M146.095 31.33C144.355 31.33 142.855 31.05 141.595 30.49C140.355 29.91 139.215 29.04 138.175 27.88L141.235 24.85C141.915 25.63 142.665 26.24 143.485 26.68C144.325 27.1 145.295 27.31 146.395 27.31C147.395 27.31 148.165 27.13 148.705 26.77C149.265 26.41 149.545 25.91 149.545 25.27C149.545 24.69 149.365 24.22 149.005 23.86C148.645 23.5 148.165 23.19 147.565 22.93C146.985 22.67 146.335 22.42 145.615 22.18C144.915 21.94 144.215 21.67 143.515 21.37C142.815 21.05 142.165 20.66 141.565 20.2C140.985 19.72 140.515 19.13 140.155 18.43C139.795 17.71 139.615 16.81 139.615 15.73C139.615 14.43 139.925 13.31 140.545 12.37C141.185 11.43 142.065 10.72 143.185 10.24C144.305 9.74 145.595 9.49 147.055 9.49C148.535 9.49 149.885 9.75 151.105 10.27C152.345 10.79 153.365 11.5 154.165 12.4L151.105 15.43C150.465 14.77 149.815 14.28 149.155 13.96C148.515 13.64 147.785 13.48 146.965 13.48C146.145 13.48 145.495 13.64 145.015 13.96C144.535 14.26 144.295 14.7 144.295 15.28C144.295 15.82 144.475 16.26 144.835 16.6C145.195 16.92 145.665 17.2 146.245 17.44C146.845 17.68 147.495 17.92 148.195 18.16C148.915 18.4 149.625 18.68 150.325 19C151.025 19.32 151.665 19.73 152.245 20.23C152.845 20.71 153.325 21.33 153.685 22.09C154.045 22.83 154.225 23.75 154.225 24.85C154.225 26.87 153.505 28.46 152.065 29.62C150.625 30.76 148.635 31.33 146.095 31.33ZM160.983 31.06L154.983 16.42H159.933L163.743 28.03H161.913L165.813 16.42H170.763L164.523 31.06H160.983ZM157.233 37.15L161.613 27.7L164.523 31.06L161.943 37.15H157.233ZM181.787 31V22.69C181.787 21.93 181.547 21.32 181.067 20.86C180.607 20.38 180.017 20.14 179.297 20.14C178.797 20.14 178.357 20.25 177.977 20.47C177.597 20.67 177.297 20.97 177.077 21.37C176.857 21.75 176.747 22.19 176.747 22.69L174.977 21.82C174.977 20.68 175.227 19.68 175.727 18.82C176.227 17.96 176.917 17.3 177.797 16.84C178.697 16.36 179.707 16.12 180.827 16.12C181.907 16.12 182.857 16.38 183.677 16.9C184.517 17.4 185.177 18.07 185.657 18.91C186.137 19.75 186.377 20.67 186.377 21.67V31H181.787ZM172.157 31V16.42H176.747V31H172.157ZM196.375 31.33C194.875 31.33 193.515 31 192.295 30.34C191.075 29.68 190.115 28.77 189.415 27.61C188.715 26.45 188.365 25.15 188.365 23.71C188.365 22.25 188.715 20.95 189.415 19.81C190.135 18.65 191.105 17.74 192.325 17.08C193.545 16.42 194.915 16.09 196.435 16.09C197.575 16.09 198.615 16.29 199.555 16.69C200.515 17.07 201.365 17.65 202.105 18.43L199.165 21.37C198.825 20.99 198.425 20.71 197.965 20.53C197.525 20.35 197.015 20.26 196.435 20.26C195.775 20.26 195.185 20.41 194.665 20.71C194.165 20.99 193.765 21.39 193.465 21.91C193.185 22.41 193.045 23 193.045 23.68C193.045 24.36 193.185 24.96 193.465 25.48C193.765 26 194.175 26.41 194.695 26.71C195.215 27.01 195.795 27.16 196.435 27.16C197.035 27.16 197.565 27.06 198.025 26.86C198.505 26.64 198.915 26.34 199.255 25.96L202.165 28.9C201.405 29.7 200.545 30.31 199.585 30.73C198.625 31.13 197.555 31.33 196.375 31.33Z" fill="#5044E5"/>
<path d="M70.032 45L66.224 35.116H68.576L71.474 43.11H70.508L73.448 35.116H75.772L71.922 45H70.032ZM76.7365 45V38.196H78.8785V45H76.7365ZM77.8145 37.258C77.4785 37.258 77.1985 37.146 76.9745 36.922C76.7598 36.6887 76.6525 36.4087 76.6525 36.082C76.6525 35.746 76.7598 35.466 76.9745 35.242C77.1985 35.018 77.4785 34.906 77.8145 34.906C78.1505 34.906 78.4258 35.018 78.6405 35.242C78.8551 35.466 78.9625 35.746 78.9625 36.082C78.9625 36.4087 78.8551 36.6887 78.6405 36.922C78.4258 37.146 78.1505 37.258 77.8145 37.258ZM82.8649 45.168C82.4635 45.168 82.0669 45.1167 81.6749 45.014C81.2922 44.9113 80.9329 44.7667 80.5969 44.58C80.2702 44.384 79.9902 44.16 79.7569 43.908L80.9749 42.676C81.1989 42.9187 81.4649 43.11 81.7729 43.25C82.0809 43.3807 82.4169 43.446 82.7809 43.446C83.0329 43.446 83.2242 43.4087 83.3549 43.334C83.4949 43.2593 83.5649 43.1567 83.5649 43.026C83.5649 42.858 83.4809 42.732 83.3129 42.648C83.1542 42.5547 82.9489 42.4753 82.6969 42.41C82.4449 42.3353 82.1789 42.256 81.8989 42.172C81.6189 42.088 81.3529 41.9713 81.1009 41.822C80.8489 41.6727 80.6435 41.4673 80.4849 41.206C80.3262 40.9353 80.2469 40.5947 80.2469 40.184C80.2469 39.7453 80.3589 39.3673 80.5829 39.05C80.8069 38.7233 81.1242 38.4667 81.5349 38.28C81.9455 38.0933 82.4262 38 82.9769 38C83.5555 38 84.0875 38.1027 84.5729 38.308C85.0675 38.504 85.4689 38.798 85.7769 39.19L84.5589 40.422C84.3442 40.17 84.1015 39.9927 83.8309 39.89C83.5695 39.7873 83.3129 39.736 83.0609 39.736C82.8182 39.736 82.6362 39.7733 82.5149 39.848C82.3935 39.9133 82.3329 40.0113 82.3329 40.142C82.3329 40.282 82.4122 40.394 82.5709 40.478C82.7295 40.562 82.9349 40.6367 83.1869 40.702C83.4389 40.7673 83.7049 40.8467 83.9849 40.94C84.2649 41.0333 84.5309 41.1593 84.7829 41.318C85.0349 41.4767 85.2402 41.6913 85.3989 41.962C85.5575 42.2233 85.6369 42.5687 85.6369 42.998C85.6369 43.6607 85.3849 44.188 84.8809 44.58C84.3862 44.972 83.7142 45.168 82.8649 45.168ZM86.799 45V38.196H88.941V45H86.799ZM87.877 37.258C87.541 37.258 87.261 37.146 87.037 36.922C86.8223 36.6887 86.715 36.4087 86.715 36.082C86.715 35.746 86.8223 35.466 87.037 35.242C87.261 35.018 87.541 34.906 87.877 34.906C88.213 34.906 88.4883 35.018 88.703 35.242C88.9176 35.466 89.025 35.746 89.025 36.082C89.025 36.4087 88.9176 36.6887 88.703 36.922C88.4883 37.146 88.213 37.258 87.877 37.258ZM93.7254 45.154C93.0254 45.154 92.3907 45 91.8214 44.692C91.2614 44.3747 90.818 43.9453 90.4914 43.404C90.1647 42.8627 90.0014 42.256 90.0014 41.584C90.0014 40.912 90.1647 40.31 90.4914 39.778C90.818 39.246 91.2614 38.826 91.8214 38.518C92.3814 38.2007 93.016 38.042 93.7254 38.042C94.4347 38.042 95.0694 38.196 95.6294 38.504C96.1894 38.812 96.6327 39.2367 96.9594 39.778C97.286 40.31 97.4494 40.912 97.4494 41.584C97.4494 42.256 97.286 42.8627 96.9594 43.404C96.6327 43.9453 96.1894 44.3747 95.6294 44.692C95.0694 45 94.4347 45.154 93.7254 45.154ZM93.7254 43.208C94.0334 43.208 94.304 43.1427 94.5374 43.012C94.7707 42.872 94.948 42.6807 95.0694 42.438C95.2 42.186 95.2654 41.9013 95.2654 41.584C95.2654 41.2667 95.2 40.9913 95.0694 40.758C94.9387 40.5153 94.7567 40.3287 94.5234 40.198C94.2994 40.058 94.0334 39.988 93.7254 39.988C93.4267 39.988 93.1607 40.058 92.9274 40.198C92.694 40.3287 92.512 40.5153 92.3814 40.758C92.2507 41.0007 92.1854 41.2807 92.1854 41.598C92.1854 41.906 92.2507 42.186 92.3814 42.438C92.512 42.6807 92.694 42.872 92.9274 43.012C93.1607 43.1427 93.4267 43.208 93.7254 43.208ZM103.01 45V41.122C103.01 40.7673 102.898 40.4827 102.674 40.268C102.459 40.044 102.184 39.932 101.848 39.932C101.614 39.932 101.409 39.9833 101.232 40.086C101.054 40.1793 100.914 40.3193 100.812 40.506C100.709 40.6833 100.658 40.8887 100.658 41.122L99.8318 40.716C99.8318 40.184 99.9484 39.7173 100.182 39.316C100.415 38.9147 100.737 38.6067 101.148 38.392C101.568 38.168 102.039 38.056 102.562 38.056C103.066 38.056 103.509 38.1773 103.892 38.42C104.284 38.6533 104.592 38.966 104.816 39.358C105.04 39.75 105.152 40.1793 105.152 40.646V45H103.01ZM98.5158 45V38.196H100.658V45H98.5158Z" fill="#5044E5"/>
<path d="M112.358 45.154C111.546 45.154 110.846 45.0233 110.258 44.762C109.679 44.4913 109.147 44.0853 108.662 43.544L110.09 42.13C110.407 42.494 110.757 42.7787 111.14 42.984C111.532 43.18 111.984 43.278 112.498 43.278C112.964 43.278 113.324 43.194 113.576 43.026C113.837 42.858 113.968 42.6247 113.968 42.326C113.968 42.0553 113.884 41.836 113.716 41.668C113.548 41.5 113.324 41.3553 113.044 41.234C112.773 41.1127 112.47 40.996 112.133 40.884C111.807 40.772 111.48 40.646 111.154 40.506C110.827 40.3567 110.524 40.1747 110.244 39.96C109.973 39.736 109.754 39.4607 109.586 39.134C109.418 38.798 109.334 38.378 109.334 37.874C109.334 37.2673 109.478 36.7447 109.768 36.306C110.066 35.8673 110.477 35.536 111 35.312C111.522 35.0787 112.124 34.962 112.806 34.962C113.496 34.962 114.126 35.0833 114.696 35.326C115.274 35.5687 115.75 35.9 116.124 36.32L114.696 37.734C114.397 37.426 114.094 37.1973 113.786 37.048C113.487 36.8987 113.146 36.824 112.764 36.824C112.381 36.824 112.078 36.8987 111.854 37.048C111.63 37.188 111.518 37.3933 111.518 37.664C111.518 37.916 111.602 38.1213 111.77 38.28C111.938 38.4293 112.157 38.56 112.428 38.672C112.708 38.784 113.011 38.896 113.338 39.008C113.674 39.12 114.005 39.2507 114.332 39.4C114.658 39.5493 114.957 39.7407 115.228 39.974C115.508 40.198 115.732 40.4873 115.9 40.842C116.068 41.1873 116.151 41.6167 116.151 42.13C116.151 43.0727 115.816 43.8147 115.144 44.356C114.472 44.888 113.543 45.154 112.358 45.154ZM119.305 45.028L116.505 38.196H118.815L120.593 43.614H119.739L121.559 38.196H123.869L120.957 45.028H119.305ZM117.555 47.87L119.599 43.46L120.957 45.028L119.753 47.87H117.555ZM129.014 45V41.122C129.014 40.7673 128.902 40.4827 128.678 40.268C128.463 40.044 128.188 39.932 127.852 39.932C127.618 39.932 127.413 39.9833 127.236 40.086C127.058 40.1793 126.918 40.3193 126.816 40.506C126.713 40.6833 126.662 40.8887 126.662 41.122L125.836 40.716C125.836 40.184 125.952 39.7173 126.186 39.316C126.419 38.9147 126.741 38.6067 127.152 38.392C127.572 38.168 128.043 38.056 128.566 38.056C129.07 38.056 129.513 38.1773 129.896 38.42C130.288 38.6533 130.596 38.966 130.82 39.358C131.044 39.75 131.156 40.1793 131.156 40.646V45H129.014ZM124.52 45V38.196H126.662V45H124.52ZM135.821 45.154C135.121 45.154 134.487 45 133.917 44.692C133.348 44.384 132.9 43.9593 132.573 43.418C132.247 42.8767 132.083 42.27 132.083 41.598C132.083 40.9167 132.247 40.31 132.573 39.778C132.909 39.2367 133.362 38.812 133.931 38.504C134.501 38.196 135.14 38.042 135.849 38.042C136.381 38.042 136.867 38.1353 137.305 38.322C137.753 38.4993 138.15 38.77 138.495 39.134L137.123 40.506C136.965 40.3287 136.778 40.198 136.563 40.114C136.358 40.03 136.12 39.988 135.849 39.988C135.541 39.988 135.266 40.058 135.023 40.198C134.79 40.3287 134.603 40.5153 134.463 40.758C134.333 40.9913 134.267 41.2667 134.267 41.584C134.267 41.9013 134.333 42.1813 134.463 42.424C134.603 42.6667 134.795 42.858 135.037 42.998C135.28 43.138 135.551 43.208 135.849 43.208C136.129 43.208 136.377 43.1613 136.591 43.068C136.815 42.9653 137.007 42.8253 137.165 42.648L138.523 44.02C138.169 44.3933 137.767 44.678 137.319 44.874C136.871 45.0607 136.372 45.154 135.821 45.154ZM142.673 45.154C141.935 45.154 141.277 45.0047 140.699 44.706C140.129 44.398 139.681 43.9733 139.355 43.432C139.028 42.8907 138.865 42.2793 138.865 41.598C138.865 40.9167 139.023 40.31 139.341 39.778C139.667 39.2367 140.106 38.812 140.657 38.504C141.207 38.196 141.828 38.042 142.519 38.042C143.191 38.042 143.783 38.1867 144.297 38.476C144.81 38.7653 145.211 39.1667 145.501 39.68C145.799 40.1933 145.949 40.7813 145.949 41.444C145.949 41.5653 145.939 41.696 145.921 41.836C145.911 41.9667 145.888 42.1207 145.851 42.298L139.985 42.312V40.842L144.941 40.828L144.017 41.444C144.007 41.052 143.947 40.73 143.835 40.478C143.723 40.2167 143.555 40.0207 143.331 39.89C143.116 39.75 142.85 39.68 142.533 39.68C142.197 39.68 141.903 39.7593 141.651 39.918C141.408 40.0673 141.217 40.282 141.077 40.562C140.946 40.842 140.881 41.1827 140.881 41.584C140.881 41.9853 140.951 42.3307 141.091 42.62C141.24 42.9 141.445 43.1193 141.707 43.278C141.977 43.4273 142.295 43.502 142.659 43.502C142.995 43.502 143.298 43.446 143.569 43.334C143.839 43.2127 144.077 43.0353 144.283 42.802L145.459 43.978C145.123 44.37 144.717 44.664 144.241 44.86C143.765 45.056 143.242 45.154 142.673 45.154ZM149.881 45.14C149.237 45.14 148.663 44.986 148.159 44.678C147.664 44.37 147.272 43.95 146.983 43.418C146.703 42.886 146.563 42.2793 146.563 41.598C146.563 40.9167 146.703 40.31 146.983 39.778C147.272 39.246 147.664 38.826 148.159 38.518C148.663 38.21 149.237 38.056 149.881 38.056C150.347 38.056 150.767 38.1447 151.141 38.322C151.523 38.4993 151.836 38.7467 152.079 39.064C152.331 39.372 152.471 39.7267 152.499 40.128V42.998C152.471 43.3993 152.335 43.7633 152.093 44.09C151.85 44.4073 151.537 44.664 151.155 44.86C150.772 45.0467 150.347 45.14 149.881 45.14ZM150.259 43.208C150.567 43.208 150.833 43.1427 151.057 43.012C151.281 42.872 151.458 42.6807 151.589 42.438C151.719 42.1953 151.785 41.9153 151.785 41.598C151.785 41.2807 151.719 41.0053 151.589 40.772C151.467 40.5293 151.29 40.338 151.057 40.198C150.833 40.058 150.571 39.988 150.273 39.988C149.974 39.988 149.708 40.058 149.475 40.198C149.251 40.338 149.069 40.5293 148.929 40.772C148.798 41.0147 148.733 41.29 148.733 41.598C148.733 41.906 148.798 42.1813 148.929 42.424C149.059 42.6667 149.241 42.858 149.475 42.998C149.708 43.138 149.969 43.208 150.259 43.208ZM153.801 45H151.701V43.166L152.023 41.514L151.659 39.862V34.836H153.801V45Z" fill="#0F0E0E"/>
<path d="M19.75 50L8.5 38.75L19.75 27.5L22.9 30.7063L17.1062 36.5H33.25V41H17.1062L22.9 46.7938L19.75 50ZM42.25 36.5L39.1 33.2937L44.8938 27.5H28.75V23H44.8938L39.1 17.2063L42.25 14L53.5 25.25L42.25 36.5Z" fill="#FEF7FF"/>
<defs>
<linearGradient id="paint0_linear_0_1" x1="5" y1="5" x2="13525" y2="5" gradientUnits="userSpaceOnUse">
<stop offset="1" stop-color="#5044E5"/>
</linearGradient>
</defs>
</svg>
